<svg width="60" height="22" viewBox="0 0 60 22" fill="none" xmlns="http://www.w3.org/2000/svg">
<path d="M26.1599 9.86295H24.3567V15.9352H22.2734V9.86295H21.1259V8.85888L22.2734 8.29879V7.73869C22.2734 6.86895 22.4874 6.23373 22.9155 5.83301C23.3435 5.43229 24.0288 5.23193 24.9714 5.23193C25.6909 5.23193 26.3307 5.33894 26.8908 5.55296L26.358 7.08297C25.9391 6.95092 25.552 6.88489 25.1968 6.88489C24.9008 6.88489 24.6868 6.97369 24.5548 7.15128C24.4227 7.32431 24.3567 7.54744 24.3567 7.82066V8.29879H26.1599V9.86295Z" fill="#2F2E41"/>
<path d="M32.1889 15.9352L31.9088 14.9584H31.7996C31.5764 15.3136 31.26 15.5891 30.8501 15.7849C30.4403 15.9762 29.9736 16.0718 29.4499 16.0718C28.5528 16.0718 27.8766 15.8327 27.4213 15.3546C26.9659 14.8719 26.7382 14.1798 26.7382 13.2782V8.29879H28.8215V12.759C28.8215 13.31 28.9194 13.7244 29.1152 14.0022C29.311 14.2754 29.6229 14.412 30.051 14.412C30.6338 14.412 31.055 14.2185 31.3146 13.8314C31.5742 13.4398 31.7039 12.7932 31.7039 11.8916V8.29879H33.7872V15.9352H32.1889Z" fill="#2F2E41"/>
<path d="M40.7178 13.6675C40.7178 14.4507 40.4446 15.0472 39.8981 15.4571C39.3563 15.8669 38.5434 16.0718 37.4597 16.0718C36.9041 16.0718 36.4306 16.0331 36.039 15.9557C35.6474 15.8828 35.2808 15.7735 34.9393 15.6278V13.9066C35.3263 14.0887 35.7612 14.2412 36.2439 14.3642C36.7311 14.4871 37.1591 14.5486 37.528 14.5486C38.2839 14.5486 38.6618 14.33 38.6618 13.8929C38.6618 13.729 38.6117 13.5969 38.5116 13.4967C38.4114 13.392 38.2384 13.2759 37.9925 13.1484C37.7466 13.0163 37.4187 12.8638 37.0089 12.6907C36.4215 12.4448 35.9889 12.2172 35.7111 12.0077C35.4379 11.7982 35.2375 11.5592 35.11 11.2905C34.9871 11.0173 34.9256 10.6826 34.9256 10.2864C34.9256 9.60795 35.1874 9.08428 35.7111 8.71544C36.2393 8.34205 36.9861 8.15535 37.9515 8.15535C38.8713 8.15535 39.7661 8.35571 40.6358 8.75642L40.0074 10.2591C39.6249 10.0952 39.2675 9.96085 38.9351 9.85612C38.6026 9.75139 38.2634 9.69902 37.9173 9.69902C37.3026 9.69902 36.9952 9.86523 36.9952 10.1976C36.9952 10.3843 37.0931 10.546 37.2889 10.6826C37.4893 10.8192 37.9242 11.0218 38.5935 11.2905C39.1901 11.5318 39.6272 11.7572 39.905 11.9667C40.1827 12.1762 40.3877 12.4175 40.5197 12.6907C40.6518 12.964 40.7178 13.2895 40.7178 13.6675Z" fill="#2F2E41"/>
<path d="M44.923 9.63755C44.4813 9.63755 44.1353 9.77871 43.8848 10.061C43.6344 10.3388 43.4909 10.735 43.4545 11.2495H46.3779C46.3688 10.735 46.2345 10.3388 45.9749 10.061C45.7154 9.77871 45.3647 9.63755 44.923 9.63755ZM45.2168 16.0718C43.9873 16.0718 43.0265 15.7325 42.3343 15.0541C41.6422 14.3756 41.2961 13.4148 41.2961 12.1716C41.2961 10.8921 41.6149 9.90393 42.2524 9.20723C42.8944 8.50598 43.7801 8.15535 44.9094 8.15535C45.9886 8.15535 46.8287 8.46272 47.4298 9.07745C48.0309 9.69219 48.3314 10.5414 48.3314 11.6252V12.6361H43.4067C43.4295 13.2281 43.6048 13.6903 43.9326 14.0227C44.2605 14.3551 44.7204 14.5213 45.3124 14.5213C45.7723 14.5213 46.2072 14.4735 46.617 14.3778C47.0268 14.2822 47.4548 14.1297 47.9011 13.9202V15.5322C47.5368 15.7143 47.1475 15.8487 46.7331 15.9352C46.3187 16.0263 45.8133 16.0718 45.2168 16.0718Z" fill="#2F2E41"/>
<path d="M51.5258 15.9352H49.4425V5.30707H51.5258V15.9352Z" fill="#2F2E41"/>
<path d="M52.0426 8.29879H54.324L55.7652 12.5951C55.8881 12.9685 55.9724 13.4102 56.0179 13.9202H56.0589C56.109 13.4512 56.2069 13.0095 56.3526 12.5951L57.7665 8.29879H60L56.7692 16.9119C56.4733 17.7088 56.0498 18.3053 55.4988 18.7015C54.9524 19.0977 54.3126 19.2957 53.5794 19.2957C53.2197 19.2957 52.8668 19.257 52.5207 19.1796V17.5267C52.7712 17.5859 53.0444 17.6155 53.3404 17.6155C53.7092 17.6155 54.0303 17.5016 54.3035 17.2739C54.5812 17.0508 54.7975 16.7116 54.9524 16.2562L55.0753 15.8805L52.0426 8.29879Z" fill="#2F2E41"/>
<path d="M8.38624 0.569197C7.48034 0.569429 6.61162 0.885947 5.97104 1.44917C5.33048 2.01239 4.9705 2.77622 4.97023 3.57274V4.93719H3.4184C2.96948 4.93686 2.52488 5.01437 2.11006 5.16528C1.69524 5.31618 1.31833 5.53754 1.00091 5.81666C0.683476 6.09576 0.431756 6.42718 0.260147 6.79191C0.0885383 7.15666 0.000408968 7.54758 0.000801443 7.9423V10.9448H4.96943V13.6737H3.4176C2.51144 13.6736 1.64234 13.99 1.00144 14.5532C0.360538 15.1165 0.000316538 15.8804 0 16.6772V21.8663H3.4192C3.8677 21.8661 4.31175 21.7883 4.72603 21.6371C5.14029 21.486 5.51663 21.2646 5.8336 20.9857C6.15055 20.7067 6.40189 20.3755 6.57328 20.011C6.74465 19.6465 6.83271 19.2561 6.83242 18.8618H6.83679V16.8794L6.82765 16.8804V4.25059L6.83521 4.25216V3.57326C6.83599 3.21126 6.99961 2.86422 7.29035 2.6079C7.58107 2.35158 7.97532 2.2068 8.38704 2.20513H14.3216V3.57326C14.3203 3.9351 14.1561 4.28177 13.865 4.53746C13.5738 4.79315 13.1793 4.93707 12.7678 4.93771H7.53752V6.5754H12.767C13.6729 6.57545 14.5417 6.25909 15.1823 5.69592C15.8229 5.13274 16.1829 4.3689 16.183 3.57239V0.568848L8.38624 0.569197ZM4.97023 9.30691H1.86538V7.94246C1.86606 7.58004 2.02987 7.23259 2.32103 6.97603C2.61218 6.71948 3.007 6.57468 3.4192 6.5733H4.97103L4.97023 9.30691ZM4.97023 18.8633C4.96955 19.2251 4.80588 19.572 4.51505 19.8279C4.22422 20.0839 3.8299 20.2282 3.4184 20.2291H1.86458V16.6781C1.86495 16.316 2.02885 15.9689 2.32021 15.713C2.6116 15.4572 3.00659 15.3135 3.4184 15.3136H4.97023V18.8633ZM7.53752 10.9446H11.4569V12.3105C11.4554 12.6722 11.2911 13.0188 11 13.2744C10.7088 13.5301 10.3145 13.674 9.90305 13.6749H7.53752V15.3136H9.90385C10.3525 15.3139 10.7968 15.2363 11.2114 15.0854C11.6259 14.9346 12.0026 14.7133 12.3198 14.4344C12.6371 14.1554 12.8887 13.8242 13.0603 13.4598C13.2319 13.0953 13.3201 12.7046 13.3199 12.3101H13.3214V9.30657H7.53752V10.9446Z" fill="#6C63FF"/>
</svg>
